<?xml version="1.0" encoding="utf-8"?>
<!-- Generator: Adobe Illustrator 28.1.0, SVG Export Plug-In . SVG Version: 6.00 Build 0)  -->
<svg version="1.1" id="Capa_2_00000141434067780145071840000011737630084909783208_"
	 xmlns="http://www.w3.org/2000/svg" xmlns:xlink="http://www.w3.org/1999/xlink" x="0px" y="0px" viewBox="0 0 955.8 340.5"
	 style="enable-background:new 0 0 955.8 340.5;" xml:space="preserve">
<style type="text/css">
	.st0{fill:#FFFFFF;}
	.st1{fill:#53A5B1;}
	.st2{fill:#E3057D;}
</style>
<g id="Capa_1-2">
	<g>
		<path class="st0" d="M5.3,255.3h31.9c2.9,0,5.3-2.4,5.3-5.3v-79.7l41.1,82.6c0.9,1.8,2.8,3,4.8,3h33.9c2.9,0,5.3-2.4,5.3-5.3V90.5
			c0-2.9-2.4-5.3-5.3-5.3H90.4c-2.9,0-5.3,2.4-5.3,5.3v79.7L44,88.1c-0.9-1.8-2.8-2.9-4.8-2.9H5.3c-2.9,0-5.3,2.4-5.3,5.3v159.4
			C0,252.9,2.4,255.3,5.3,255.3z"/>
		<path class="st0" d="M398.6,255.3h31.9c2.9,0,5.3-2.4,5.3-5.3v-79.7l41,82.6c0.9,1.8,2.8,3,4.8,3h33.9c2.9,0,5.3-2.4,5.3-5.3V90.5
			c0-2.9-2.4-5.3-5.3-5.3h-31.9c-2.9,0-5.3,2.4-5.3,5.3v79.7l-41-82.1c-0.9-1.8-2.8-2.9-4.8-2.9h-33.9c-2.9,0-5.3,2.4-5.3,5.3v159.4
			C393.3,252.9,395.7,255.3,398.6,255.3L398.6,255.3z"/>
		<path class="st0" d="M181.2,127.7v20.9h36.7c2.9,0,5.3,2.4,5.3,5.3v31.9c0,2.9-2.4,5.3-5.3,5.3h-36.7v21.6h58
			c2.9,0,5.3,2.4,5.3,5.3v32.3c0,2.9-2.4,5.3-5.4,5.3l-95.6-0.4c-2.9,0-5.3-2.4-5.3-5.3V90.5c0-2.9,2.4-5.3,5.3-5.3h95.6
			c2.9,0,5.3,2.4,5.3,5.3v31.9c0,2.9-2.4,5.3-5.3,5.3L181.2,127.7L181.2,127.7z"/>
		<path class="st0" d="M318.9,255.3L318.9,255.3c-35.2,0-63.8-28.6-63.8-63.8V149c0-35.2,28.6-63.8,63.8-63.8l0,0
			c35.2,0,63.8,28.6,63.8,63.8v42.5C382.7,226.7,354.1,255.3,318.9,255.3z M318.9,212.8c11.7,0,21.3-9.5,21.3-21.3V149
			c0-11.7-9.5-21.3-21.3-21.3l0,0c-11.7,0-21.3,9.5-21.3,21.3v42.5C297.6,203.2,307.2,212.8,318.9,212.8L318.9,212.8z"/>
		<polygon class="st1" points="393.3,63.9 478.4,0.2 435.8,63.9 		"/>
		<polygon class="st1" points="127.6,276.5 42.5,340.3 85,276.5 		"/>
		<g>
			<path class="st2" d="M516.2,63.4c19.2-6.7,45.4-12.8,77.9-18.4c32.7-5.6,70.8-10.6,113.3-14.9c42.5-4.3,87.1-7.4,132.7-9.2
				c5.7-0.2,10.1-4.9,10.1-10.5c0-0.1,0-0.3,0-0.4C850,4.3,845.2-0.2,839.4,0c-46,1.8-91.2,4.9-134,9.2c-43,4.4-81.6,9.4-114.7,15.1
				c-33.6,5.7-60.9,12.2-81.2,19.3c-4.3,1.5-7.1,5.6-7.1,9.9c0,1.1,0.2,2.3,0.6,3.4c1.5,4.3,5.6,7.1,9.9,7.1
				C514,64,515.1,63.8,516.2,63.4L516.2,63.4z"/>
			<path class="st2" d="M642.4,174.2c3.7-1.8,5.8-5.6,5.8-9.4c0-1.6-0.4-3.2-1.1-4.7c-5.1-10.1-18.5-8-24.3-7.1
				c-8.1,1.3-18,3.5-29.3,6.6c-0.6,0.1-1.1,0.3-1.7,0.5c-0.1,0-0.1,0-0.2,0.1h0c-0.2,0.1-0.4,0.1-0.6,0.2c0,0,0,0-0.1,0c0,0,0,0,0,0
				c-0.2,0.1-0.4,0.1-0.7,0.2c0,0-0.1,0-0.1,0c-0.2,0.1-0.5,0.1-0.7,0.2c0,0-0.1,0-0.1,0c-0.1,0-0.2,0.1-0.4,0.1
				c-0.1,0-0.1,0-0.2,0.1c0,0-0.1,0-0.1,0c-0.1,0-0.2,0-0.2,0.1c0,0,0,0,0,0c0,0-0.1,0-0.1,0c-0.4,0.1-0.8,0.2-1.3,0.4
				c0,0-0.1,0-0.1,0c-3.3,0.9-6.7,1.9-10.2,2.8c3.4-9.6,6.9-19,10.4-28.1c7.2-18.5,14.6-35.4,22-50.3c5.4-10.8,10.6-19.8,15.4-26.9
				c1.3-1.8,1.9-3.9,1.9-6c0-3.3-1.6-6.6-4.5-8.7c-4.8-3.3-11.3-2.1-14.6,2.7c-5.4,7.8-11.1,17.7-17,29.4
				c-7.7,15.5-15.4,33-22.8,52.1c-0.1,0.3-0.2,0.6-0.4,0.9c0,0.1-0.1,0.2-0.2,0.4l-0.1,0.3c0,0.1-0.1,0.3-0.2,0.4
				c-0.1,0.2-0.1,0.3-0.2,0.5c0,0.1-0.1,0.2-0.1,0.4c0,0.1,0,0.1-0.1,0.1c0,0.1,0,0.1-0.1,0.2l0,0c0,0,0,0.1,0,0.1c0,0,0,0.1,0,0.1
				c0,0.1,0,0.1-0.1,0.2c0,0.1,0,0.1-0.1,0.1c0,0.1-0.1,0.1-0.1,0.2c0,0,0,0.1,0,0.1c-4.4,11.4-8.7,23.2-12.8,35.2c0,0,0,0,0,0
				c0,0,0,0,0,0.1c-0.4,1.1-0.7,2.1-1.1,3.2c-4.2,1.2-7.6,2.2-12.5,3.5c-5.6,1.5-8.9,7.3-7.4,12.9c1.3,4.7,5.5,7.8,10.1,7.8
				c0.6,0,1.3-0.1,1.9-0.2c-5.8,18.1-11,35.5-15.6,51.9c-5.2,18.5-9.4,35.2-12.5,49.6c-3.2,15-4.9,25.9-5,33.1
				c-0.1,5.8,4.5,10.6,10.3,10.7c0.1,0,0.2,0,0.2,0c5.7,0,10.4-4.5,10.5-10.3c0.1-4,1-12.3,4.6-29.2c3-14,7.1-30.3,12.1-48.4
				c5.1-18.3,11-37.8,17.6-58c0.7-2.1,1.4-4.2,2.1-6.4c11-3.1,21.1-5.9,30.6-8.5c10.6-2.9,19.7-4.9,27.1-6.1
				c2.7-0.4,4.4-0.5,5.4-0.5C634.4,175.5,638.7,176,642.4,174.2L642.4,174.2z"/>
			<path class="st2" d="M830.6,231.8c4.4-3.8,4.8-10.4,1-14.8c-3.8-4.4-10.5-4.8-14.8-1c-2,1.7-4,3.6-6.2,5.4
				c-19.6,17.4-46.5,41.2-66.7,37.6c-3.7-0.8-6.8-3.7-8.8-7.9c0.3-0.2,0.6-0.4,1-0.7c21.4-14.6,61.2-41.8,54.8-75.2
				c-0.1-0.5-0.2-0.9-0.3-1.4c-3.6-10.9-11.2-14.1-15.4-15c-12.5-2.8-26.7,6.6-35.2,15.5c-16.5,16.8-27,38.9-28.3,59.7
				c-3.9-2.8-9.3-2.6-13,0.6c-3.9,3.4-7.9,6.8-12,10.2c-6.6,5.5-12.6,10.3-17.8,14.2c-3.7,2.5-7,4.5-9.9,6.1
				c-0.1-1.1-0.2-2.5-0.2-4.3c0-6.8,1.2-17.2,3.7-31.1c2.4-13.9,5.7-27.3,9.7-39.8c4-12.5,8.5-24.3,13.4-35
				c4.9-10.7,10.1-20.6,15.5-29.4c5.4-8.8,10.7-16.7,15.9-23.4c3.5-4.6,2.7-11.2-1.9-14.7s-11.2-2.7-14.7,1.9
				c-5.7,7.3-11.5,15.8-17.2,25.3c-5.8,9.6-11.4,20.2-16.6,31.6c-5.2,11.4-10,24-14.3,37.3c-4.3,13.4-7.8,27.7-10.4,42.6
				c-2.7,15.2-4,26.6-4,34.7c0,10.5,2,17.5,6.2,21.8c1.8,1.8,5.8,5,11.9,5c2.7,0,5.8-0.6,9.3-2.2c4.6-2.1,9.7-5.1,15.7-9.2
				c0.1-0.1,0.3-0.2,0.4-0.3c5.5-4.2,11.9-9.2,18.9-15c4.2-3.5,8.3-7,12.4-10.6c0.1-0.1,0.2-0.2,0.3-0.3
				c3.5,15.1,13.7,26.7,27.2,29.4c0,0,0.1,0,0.1,0c2.8,0.5,5.5,0.8,8.3,0.8c27.4,0,54.2-23.8,76.2-43.2
				C826.6,235.3,828.6,233.5,830.6,231.8L830.6,231.8z M754.9,189c0-0.1,0.1-0.1,0.2-0.2c5.6-6,12.5-9.5,15.1-9.6
				c0.1,0.1,0.2,0.3,0.2,0.5c2.3,16.3-19.8,34.6-36.5,46.6C736.8,213.2,744.3,199.8,754.9,189L754.9,189z"/>
			<path class="st2" d="M952.1,185.2c-4.5-3.7-11.1-3.1-14.8,1.4c-1.2,1.4-3.9,4.3-10.1,9.9c-4.9,4.5-10.6,8.9-17,13.1
				c-6.1,4-12.7,7.3-19.8,9.8c-6,2.1-11.7,2.4-17.4,1c-3.1-0.8-5.8-2-8.2-3.7c3.6-5.9,6.8-11.3,9.7-16c4.1-6.6,8.1-12.5,11.9-17.3
				c3.5-4.5,7.8-8.6,12.6-12.3c2.7-2.1,4.2-5.2,4.2-8.4c0-2.2-0.7-4.4-2.1-6.3c-3.5-4.6-10.1-5.5-14.7-2c-6.3,4.8-11.8,10.2-16.4,16
				c-4.3,5.5-8.8,11.9-13.3,19.3c-1.8,2.9-3.7,5.9-5.7,9.2c-0.8-1.5-1.5-3.1-2.2-4.7c-2.8-6.8-4.9-13.4-6.3-19.8
				c-1.5-6.8-2.8-12.6-3.9-17.2c-1.3-5.6-7-9.1-12.6-7.8c-4.8,1.1-8.1,5.5-8.1,10.2c0,0.8,0.1,1.6,0.3,2.4
				c1.1,4.5,2.3,10.2,3.8,16.9c1.7,7.6,4.2,15.5,7.5,23.4c2.5,6,5.6,11.7,9.3,17c-5.2,8.6-11.4,18.9-18.5,30.4
				c-1.1,1.7-1.6,3.6-1.6,5.5c0,3.5,1.8,7,5,8.9c1.7,1.1,3.6,1.6,5.5,1.6c3.5,0,7-1.8,8.9-5c6-9.6,11.3-18.3,15.9-26
				c4.2,2.7,9,4.8,14.1,6c3.9,0.9,7.9,1.4,11.9,1.4c5.8,0,11.6-1,17.4-3c8.7-3,17-7.1,24.5-12.1c7.3-4.9,13.9-9.9,19.6-15.1
				c5.7-5.2,9.7-9.1,12-12c1.6-2,2.4-4.3,2.4-6.7C955.8,190.3,954.6,187.3,952.1,185.2L952.1,185.2z"/>
		</g>
	</g>
</g>
</svg>
